<svg xmlns="http://www.w3.org/2000/svg" width="1000" height="1000" viewBox="0 0 264.583 264.583"><path d="M29.583 168.109c-8.645 0-15.653 8.583-15.653 19.17 0 10.589 6.345 17.845 15.653 19.172l116.422 25.574 104.602-58.868" fill="none" stroke="#333" stroke-width="7.443" stroke-linecap="round" stroke-linejoin="round"/><path d="M29.583 129.767c-8.645 0-15.653 8.583-15.653 19.171s6.345 17.844 15.653 19.171l116.422 25.574 104.602-58.867" fill="none" stroke="#333" stroke-width="7.443" stroke-linecap="round" stroke-linejoin="round"/><path d="M29.583 91.426c-8.645 0-15.653 8.583-15.653 19.17 0 10.588 6.345 17.845 15.653 19.171l56.79 12.475m33.987 7.466l25.645 5.633 104.602-58.867" fill="none" stroke="#333" stroke-width="7.443" stroke-linecap="round" stroke-linejoin="round"/><path d="M134.185 32.558L26.765 91.426 146.004 117l104.602-58.868z" fill="#333" stroke="#333" stroke-width="7.444" stroke-linecap="round" stroke-linejoin="round"/><path d="M142.21 55.097l-26.963 15.26 43.299 9.51 26.96-15.26z" fill="#f29d16" stroke="#333" stroke-width="2.767" stroke-linecap="round" stroke-linejoin="round"/><path d="M95.346 122.498v38.933l8.678-5.395 9.616 10.554v-41.043z" fill="#f49f16" fill-rule="evenodd"/></svg>